<?xml version="1.0" encoding="iso-8859-1"?>
<!-- Generator: Adobe Illustrator 21.0.2, SVG Export Plug-In . SVG Version: 6.00 Build 0)  -->
<svg xmlns="http://www.w3.org/2000/svg" xmlns:xlink="http://www.w3.org/1999/xlink" version="1.1" id="Layer_1" x="0px" y="0px" viewBox="0 0 40 40" style="enable-background:new 0 0 40 40;" xml:space="preserve">
<g>
	<path style="fill:#000000;" d="M12.5,38.5v-1.028c2.969-0.341,5-3.729,5-8.472v-4.5H17c-1.261,0-2.609,0.959-4.037,1.974   c-0.44,0.313-0.885,0.63-1.329,0.917l-0.146,0.077C10.432,28.143,9.226,28.5,8,28.5c-3.584,0-6.5-2.916-6.5-6.5s2.916-6.5,6.5-6.5   c1.226,0,2.432,0.357,3.487,1.032l0.124,0.079h0.026c0.442,0.287,0.886,0.602,1.325,0.915C14.39,18.541,15.739,19.5,17,19.5h0.5V18   c0-1.646-1.358-3.945-2.89-6.363l-0.078-0.15C13.857,10.432,13.5,9.226,13.5,8c0-3.584,2.916-6.5,6.5-6.5s6.5,2.916,6.5,6.5   c0,1.226-0.357,2.432-1.032,3.487l-0.079,0.124v0.027C23.857,14.055,22.5,16.354,22.5,18v1.5H23c1.241,0,2.604-0.964,4.046-1.984   c0.438-0.31,0.881-0.623,1.32-0.907l0.146-0.077C29.568,15.857,30.774,15.5,32,15.5c3.584,0,6.5,2.916,6.5,6.5s-2.916,6.5-6.5,6.5   c-1.226,0-2.432-0.357-3.487-1.032l-0.124-0.079h-0.026c-0.43-0.278-0.866-0.583-1.3-0.887C25.591,25.473,24.201,24.5,23,24.5h-0.5   V29c0,4.743,2.031,8.13,5,8.472V38.5H12.5z"/>
	<path style="fill:#000000;" d="M20,2c3.308,0,6,2.692,6,6c0,1.13-0.33,2.243-0.953,3.218L24.89,11.49v0.002   C23.349,13.93,22,16.25,22,18v1v1h1c1.4,0,2.825-1.008,4.335-2.076c0.388-0.275,0.788-0.557,1.177-0.814h0.024l0.246-0.157   C29.757,16.33,30.87,16,32,16c3.308,0,6,2.692,6,6s-2.692,6-6,6c-1.13,0-2.243-0.33-3.218-0.953l-0.25-0.144   c-0.389-0.255-0.79-0.536-1.181-0.809C25.812,25.017,24.359,24,23,24h-1v1v4c0,4.783,2.01,8.264,5,8.897V38h-7h-7v-0.103   c2.99-0.632,5-4.114,5-8.897v-4v-1h-1c-1.42,0-2.833,1.004-4.328,2.068c-0.39,0.278-0.792,0.563-1.184,0.822h-0.023l-0.246,0.157   C10.243,27.67,9.13,28,8,28c-3.308,0-6-2.692-6-6s2.692-6,6-6c1.13,0,2.243,0.33,3.218,0.953l0.246,0.142   c0.4,0.263,0.81,0.554,1.208,0.838C14.167,18.996,15.579,20,17,20h1v-1v-1c0-1.75-1.348-4.07-2.89-6.507v-0.029l-0.157-0.246   C14.33,10.243,14,9.13,14,8C14,4.692,16.692,2,20,2 M20,1c-3.866,0-7,3.134-7,7c0,1.386,0.415,2.67,1.11,3.757   c0,0.008-0.001,0.017-0.001,0.025C15.564,14.072,17,16.454,17,18c0,0.068,0,0.563,0,1c-1.5,0-3.374-1.719-5.218-2.89   c-0.008,0-0.017,0.001-0.025,0.001C10.67,15.415,9.386,15,8,15c-3.866,0-7,3.134-7,7s3.134,7,7,7c1.386,0,2.67-0.415,3.757-1.11   c0.008,0,0.017,0.001,0.025,0.001C13.626,26.719,15.5,25,17,25v4c0,4.541-1.973,8-5,8v2h8h8v-2c-3.027,0-5-3.459-5-8v-4   c1.406,0,3.374,1.719,5.218,2.89c0.008,0,0.017-0.001,0.025-0.001C29.33,28.585,30.614,29,32,29c3.866,0,7-3.134,7-7s-3.134-7-7-7   c-1.386,0-2.67,0.415-3.757,1.11c-0.008,0-0.017-0.001-0.025-0.001C26.374,17.281,24.469,19,23,19c0-0.441,0-0.938,0-1   c0-1.546,1.436-3.928,2.89-6.218c0-0.008-0.001-0.017-0.001-0.025C26.585,10.67,27,9.386,27,8C27,4.134,23.866,1,20,1L20,1z"/>
</g>
</svg>
