<?xml version="1.0" encoding="iso-8859-1"?>
<!-- Generator: Adobe Illustrator 21.0.2, SVG Export Plug-In . SVG Version: 6.00 Build 0)  -->
<svg xmlns="http://www.w3.org/2000/svg" xmlns:xlink="http://www.w3.org/1999/xlink" version="1.1" id="Layer_1" x="0px" y="0px" viewBox="0 0 40 40" style="enable-background:new 0 0 40 40;" xml:space="preserve">
<g>
	<path style="fill:#000000;" d="M12.5,38.5v-1.028c2.969-0.342,5-3.729,5-8.472v-0.918l-0.771,0.498   c-1.206,0.777-2.383,0.92-4.266,0.92c-4.858,0-8.963-3.723-8.963-8.13c0-8.157,14.228-18.213,16.478-19.752   C22.186,3.365,36.5,14.939,36.5,21.37c0,4.407-4.104,8.13-8.963,8.13c-1.883,0-3.06-0.143-4.266-0.92L22.5,28.082V29   c0,4.743,2.031,8.13,5,8.472V38.5H12.5z"/>
	<path style="fill:#000000;" d="M19.96,2.238C24.923,6.161,36,16.036,36,21.37c0,4.136-3.876,7.63-8.463,7.63   c-1.785,0-2.894-0.13-3.995-0.84L22,27.165V29c0,4.783,2.01,8.264,5,8.897V38h-7h-7v-0.103c2.99-0.632,5-4.114,5-8.897v-1.835   l-1.542,0.995c-1.101,0.71-2.21,0.84-3.995,0.84C7.876,29,4,25.506,4,21.37C4,13.758,17.008,4.288,19.96,2.238 M20,1   C20,1,3,12.182,3,21.37C3,26.29,7.544,30,12.463,30c1.772,0,3.152-0.106,4.537-1c0,4.541-1.973,8-5,8v2h8h8v-2   c-3.027,0-5-3.459-5-8c1.385,0.894,2.765,1,4.537,1C32.456,30,37,26.29,37,21.37C37,14.109,20,1,20,1L20,1z"/>
</g>
</svg>
